<?xml version="1.0" encoding="UTF-8"?><svg width="322px" height="229px" viewBox="0 0 322 229" version="1.1" xmlns="http://www.w3.org/2000/svg" xmlns:xlink="http://www.w3.org/1999/xlink"><title>OSCS</title><defs><rect id="path-1" x="0" y="0" width="314" height="221" rx="6"></rect><filter x="-2.2%" y="-2.3%" width="104.5%" height="106.3%" filterUnits="objectBoundingBox" id="filter-3"><feOffset dx="0" dy="2" in="SourceAlpha" result="shadowOffsetOuter1"></feOffset><feGaussianBlur stdDeviation="2" in="shadowOffsetOuter1" result="shadowBlurOuter1"></feGaussianBlur><feColorMatrix values="0 0 0 0 0.929720904   0 0 0 0 0.932090525   0 0 0 0 0.94156901  0 0 0 1 0" type="matrix" in="shadowBlurOuter1"></feColorMatrix></filter><rect id="path-4" x="0" y="0" width="314" height="50"></rect><filter x="-5.4%" y="-32.0%" width="110.8%" height="168.0%" filterUnits="objectBoundingBox" id="filter-5"><feMorphology radius="0.5" operator="dilate" in="SourceAlpha" result="shadowSpreadOuter1"></feMorphology><feOffset dx="0" dy="1" in="shadowSpreadOuter1" result="shadowOffsetOuter1"></feOffset><feGaussianBlur stdDeviation="5" in="shadowOffsetOuter1" result="shadowBlurOuter1"></feGaussianBlur><feColorMatrix values="0 0 0 0 0   0 0 0 0 0   0 0 0 0 0  0 0 0 0.05 0" type="matrix" in="shadowBlurOuter1"></feColorMatrix></filter><path d="M32.5000464,83 L31.6175884,82.6587579 C3.27734292,71.720465 0,57.4226066 0,47.6202419 L0,10.1796783 L2.52990481,10.2659161 C22.2295281,10.9359747 30.6181256,2.05756003 30.6968717,1.97132221 L32.5025537,0 L34.3059141,1.97141494 C34.3722168,2.04253795 42.3218605,10.3016167 60.3683724,10.3016167 L60.3712511,10.3016167 C61.0572152,10.3016167 61.7584086,10.2916947 62.4701881,10.2660089 L65,10.179771 L65,47.6199637 C65,57.4225139 61.7228428,71.7201868 33.3825044,82.6586652 L32.5000464,83 L32.5000464,83 Z" id="path-6"></path><linearGradient x1="0%" y1="0%" x2="0%" y2="100%" id="linearGradient-8"><stop stop-color="#BBBBBB" stop-opacity="0.1" offset="0%"></stop><stop stop-color="#000000" stop-opacity="0.1" offset="100%"></stop></linearGradient></defs><g id="页面-1" stroke="none" stroke-width="1" fill="none" fill-rule="evenodd"><g id="area2" transform="translate(-285.000000, -782.000000)"><g id="编组-14" transform="translate(289.000000, 784.000000)"><g id="矩形备份-5"><mask id="mask-2" fill="white"><use xlink:href="#path-1"></use></mask><g id="蒙版"><use fill="black" fill-opacity="1" filter="url(#filter-3)" xlink:href="#path-1"></use> <use fill="#FFFFFF" fill-rule="evenodd" xlink:href="#path-1"></use></g>  <g id="矩形" mask="url(#mask-2)"><use fill="black" fill-opacity="1" filter="url(#filter-5)" xlink:href="#path-4"></use><use fill="#FBFBFB" fill-rule="evenodd" xlink:href="#path-4"></use>  </g></g><g id="编组" opacity="0.45" transform="translate(280.000000, 196.543794) scale(-1, 1) translate(-280.000000, -196.543794) translate(277.000000, 191.000000)" fill="#333333" fill-rule="nonzero">  <path d="M5.81149327,10.2586177 L1.44207402,5.87192821 C1.26937184,5.69922603 1.26937184,5.40563233 1.44207402,5.21565993 L5.84603371,0.811700239 C6.0360061,0.63899806 6.05327632,0.345404357 5.88057414,0.155431961 C5.79422306,0.0518106536 5.67333153,0 5.53516979,0 C5.39700804,0 5.27610569,0.0518106536 5.1897546,0.155431961 L5.0861333,0.259053268 L0.129526634,5.23293015 C-0.0431755446,5.40563233 -0.0431755446,5.69922603 0.129526634,5.88919843 L5.1897546,10.9494264 C5.27610569,11.0357775 5.379727,11.0875881 5.50061852,11.0875881 C5.75967179,11.0875881 5.96692523,10.8803455 5.96692523,10.6385625 C5.98419545,10.4831197 5.91511458,10.3449579 5.81149327,10.2586177 Z" id="路径"></path></g><text id="lr580/zyxl" font-family="HelveticaNeue-Bold, Helvetica Neue" font-size="14" font-weight="bold" line-spacing="22" fill="#737373">  <tspan x="30" y="28">lr580/zyxl</tspan></text><text id="View-more-details-on" font-family="HelveticaNeue, Helvetica Neue" font-size="12" font-weight="normal" line-spacing="22" fill="#000000" fill-opacity="0.35">  <tspan x="30" y="197">View more details on oscs1024.com</tspan></text><rect id="Rectangle-7备份-5" fill-opacity="0.6" fill="#E9E9E9" x="25" y="173" width="264.421053" height="1"></rect><text id="Security" font-family="SourceHanSansCN-Heavy, Source Han Sans CN" font-size="16" font-weight="800" fill="#000000" fill-opacity="0.55">  <tspan x="50" y="102">Security</tspan></text><text id="Protected" font-family="SourceHanSansCN-Heavy, Source Han Sans CN" font-size="16" font-weight="800" fill="#000000" fill-opacity="0.55">  <tspan x="50" y="132">Protected</tspan></text><g id="编组备份-11" transform="translate(184.000000, 70.000000)">  <g id="路径">      <mask id="mask-7" fill="white"> <use xlink:href="#path-6"></use>      </mask>      <use id="蒙版" fill="#4A67E9" fill-rule="nonzero" xlink:href="#path-6"></use>      <polygon fill="url(#linearGradient-8)" fill-rule="nonzero" mask="url(#mask-7)" points="-16 -3 81 -3 81 89 -16 89"></polygon>  </g>  <path d="M31.8201091,74.7327622 C9.98418225,66.1666292 7.45901639,54.9695112 7.45901639,47.2929605 L7.45901639,17.9720372 L9.40828731,18.0395729 C24.5866856,18.5643175 31.0500312,11.6113422 31.1107044,11.5438066 L32.5019676,10 L33.891442,11.5438792 C33.9425277,11.5995779 40.067663,18.0675312 53.9723525,18.0675312 C54.5031003,18.0675312 55.043364,18.0597609 55.5917842,18.0396455 L57.5409836,17.9721098 L57.5409836,47.2927427 C57.5409836,54.9694386 55.0159608,66.1664114 33.1799624,74.7326896 L32.5000358,75 L31.8201091,74.7327622 Z" id="路径" stroke="#FFFFFF" stroke-width="1.6" fill="#5673F5" fill-rule="nonzero"></path></g><text id="OSCS" font-family="SourceHanSansCN-Heavy, Source Han Sans CN" font-size="16" font-weight="800" fill="#FFFFFF">  <tspan x="195" y="110">OSCS</tspan></text><polygon id="路径" fill="#47B9AC" fill-rule="nonzero" transform="translate(254.063953, 119.523256) scale(1, -1) translate(-254.063953, -119.523256) " points="262 129.046512 246.127907 129.046512 246.127907 110 262 110 258.50814 119.523256"></polygon><path d="M261.541836,111.360465 L246.127907,111.360465 L246.127907,110.05814 L262,110.05814 L261.541836,111.360465 Z M261.541836,127.686046 L246.127907,127.686046 L246.127907,128.988372 L262,128.988372 L261.541836,127.686046 Z" id="形状" fill="#259084" fill-rule="nonzero" transform="translate(254.063953, 119.523256) scale(1, -1) translate(-254.063953, -119.523256) "></path><polyline id="路径" fill="#259084" fill-rule="nonzero" transform="translate(250.360465, 113.174419) scale(1, -1) translate(-250.360465, -113.174419) " points="246.127907 110 254.593023 113.174419 246.127907 116.348837"></polyline><polygon id="路径" fill="#47B9AC" fill-rule="nonzero" transform="translate(178.936047, 119.523256) scale(1, -1) translate(-178.936047, -119.523256) " points="171 129.046512 186.872093 129.046512 186.872093 110 171 110 174.49186 119.523256"></polygon><path d="M171.458164,111.360465 L186.872093,111.360465 L186.872093,110.05814 L171,110.05814 L171.458164,111.360465 Z M171.458164,127.686046 L186.872093,127.686046 L186.872093,128.988372 L171,128.988372 L171.458164,127.686046 Z" id="形状" fill="#259084" fill-rule="nonzero" transform="translate(178.936047, 119.523256) scale(1, -1) translate(-178.936047, -119.523256) "></path><polyline id="路径" fill="#259084" fill-rule="nonzero" transform="translate(182.639535, 113.174419) scale(1, -1) translate(-182.639535, -113.174419) " points="186.872093 110 178.406977 113.174419 186.872093 116.348837"></polyline><path d="M254.593023,134.337209 C229.197674,132.037082 203.802326,132.037082 178.406977,134.337209 L178.406977,114.899514 C203.802326,112.599387 229.197674,112.599387 254.593023,114.899514 L254.593023,134.337209 Z" id="路径" fill="#40B2A5" fill-rule="nonzero" transform="translate(216.500000, 123.755814) scale(1, -1) translate(-216.500000, -123.755814) "></path><path d="M178.406977,132.928253 L178.406977,134.27907 C203.802326,131.881371 229.197674,131.881371 254.593023,134.27907 L254.593023,132.928253 C229.197674,130.496784 203.802326,130.496784 178.406977,132.928253 Z" id="路径" fill="#259084" fill-rule="nonzero" transform="translate(216.500000, 132.691860) scale(1, -1) translate(-216.500000, -132.691860) "></path><path d="M178.406977,115.05616 L178.406977,116.406977 C203.802326,114.009278 229.197674,114.009278 254.593023,116.406977 L254.593023,115.05616 C229.197674,112.624691 203.802326,112.624691 178.406977,115.05616 Z" id="路径" fill="#259084" fill-rule="nonzero" transform="translate(216.500000, 114.819767) scale(1, -1) translate(-216.500000, -114.819767) "></path><text id="member" font-family="SourceHanSansCN-Regular, Source Han Sans CN" font-size="14" font-weight="normal" fill="#FFFFFF"><tspan x="190" y="129">member</tspan></text></g></g></g></svg>